<svg width="239" height="60" viewBox="0 0 239 60" fill="none" xmlns="http://www.w3.org/2000/svg">
<path d="M77.824 11.352C82.784 11.352 86.592 12.232 89.248 13.992C91.904 15.72 93.232 18.568 93.232 22.536C93.232 26.536 91.888 29.432 89.2 31.224C86.512 32.984 82.672 33.864 77.68 33.864H75.328V45H67.84V12.216C69.472 11.896 71.2 11.672 73.024 11.544C74.848 11.416 76.448 11.352 77.824 11.352ZM78.304 17.736C77.76 17.736 77.216 17.752 76.672 17.784C76.16 17.816 75.712 17.848 75.328 17.88V27.48H77.68C80.272 27.48 82.224 27.128 83.536 26.424C84.848 25.72 85.504 24.408 85.504 22.488C85.504 21.56 85.328 20.792 84.976 20.184C84.656 19.576 84.176 19.096 83.536 18.744C82.928 18.36 82.176 18.104 81.28 17.976C80.384 17.816 79.392 17.736 78.304 17.736ZM113.467 26.088C112.827 25.928 112.075 25.768 111.211 25.608C110.347 25.416 109.419 25.32 108.427 25.32C107.979 25.32 107.435 25.368 106.795 25.464C106.187 25.528 105.723 25.608 105.403 25.704V45H98.2506V21.096C99.5306 20.648 101.035 20.232 102.763 19.848C104.523 19.432 106.475 19.224 108.619 19.224C109.003 19.224 109.467 19.256 110.011 19.32C110.555 19.352 111.099 19.416 111.643 19.512C112.187 19.576 112.731 19.672 113.275 19.8C113.819 19.896 114.283 20.024 114.667 20.184L113.467 26.088ZM116.832 32.568C116.832 30.328 117.168 28.376 117.84 26.712C118.544 25.016 119.456 23.608 120.576 22.488C121.696 21.368 122.976 20.52 124.416 19.944C125.888 19.368 127.392 19.08 128.928 19.08C132.512 19.08 135.344 20.184 137.424 22.392C139.504 24.568 140.544 27.784 140.544 32.04C140.544 32.456 140.528 32.92 140.496 33.432C140.464 33.912 140.432 34.344 140.4 34.728H124.176C124.336 36.2 125.024 37.368 126.24 38.232C127.456 39.096 129.088 39.528 131.136 39.528C132.448 39.528 133.728 39.416 134.976 39.192C136.256 38.936 137.296 38.632 138.096 38.28L139.056 44.088C138.672 44.28 138.16 44.472 137.52 44.664C136.88 44.856 136.16 45.016 135.36 45.144C134.592 45.304 133.76 45.432 132.864 45.528C131.968 45.624 131.072 45.672 130.176 45.672C127.904 45.672 125.92 45.336 124.224 44.664C122.56 43.992 121.168 43.08 120.048 41.928C118.96 40.744 118.144 39.352 117.6 37.752C117.088 36.152 116.832 34.424 116.832 32.568ZM133.632 29.832C133.6 29.224 133.488 28.632 133.296 28.056C133.136 27.48 132.864 26.968 132.48 26.52C132.128 26.072 131.664 25.704 131.088 25.416C130.544 25.128 129.856 24.984 129.024 24.984C128.224 24.984 127.536 25.128 126.96 25.416C126.384 25.672 125.904 26.024 125.52 26.472C125.136 26.92 124.832 27.448 124.608 28.056C124.416 28.632 124.272 29.224 124.176 29.832H133.632ZM162.239 32.568C162.239 30.36 161.743 28.6 160.751 27.288C159.759 25.944 158.287 25.272 156.335 25.272C155.695 25.272 155.103 25.304 154.559 25.368C154.015 25.4 153.567 25.448 153.215 25.512V38.424C153.663 38.712 154.239 38.952 154.943 39.144C155.679 39.336 156.415 39.432 157.151 39.432C160.543 39.432 162.239 37.144 162.239 32.568ZM169.535 32.376C169.535 34.328 169.295 36.104 168.815 37.704C168.335 39.304 167.631 40.68 166.703 41.832C165.775 42.984 164.623 43.88 163.247 44.52C161.871 45.16 160.287 45.48 158.495 45.48C157.503 45.48 156.575 45.384 155.711 45.192C154.847 45 154.015 44.728 153.215 44.376V53.88H146.063V20.616C146.703 20.424 147.439 20.248 148.271 20.088C149.103 19.896 149.967 19.736 150.863 19.608C151.791 19.48 152.719 19.384 153.647 19.32C154.607 19.224 155.519 19.176 156.383 19.176C158.463 19.176 160.319 19.496 161.951 20.136C163.583 20.744 164.959 21.624 166.079 22.776C167.199 23.896 168.047 25.272 168.623 26.904C169.231 28.536 169.535 30.36 169.535 32.376ZM195.576 11.736H203.064V45H195.576V30.888H183V45H175.512V11.736H183V24.456H195.576V11.736ZM220.506 11.352C225.498 11.352 229.322 12.248 231.978 14.04C234.634 15.8 235.962 18.552 235.962 22.296C235.962 24.632 235.418 26.536 234.33 28.008C233.274 29.448 231.738 30.584 229.722 31.416C230.394 32.248 231.098 33.208 231.834 34.296C232.57 35.352 233.29 36.472 233.994 37.656C234.73 38.808 235.434 40.024 236.106 41.304C236.778 42.552 237.402 43.784 237.978 45H229.578C228.97 43.912 228.346 42.808 227.706 41.688C227.098 40.568 226.458 39.48 225.786 38.424C225.146 37.368 224.506 36.376 223.866 35.448C223.226 34.488 222.586 33.624 221.946 32.856H218.25V45H210.762V12.216C212.394 11.896 214.074 11.672 215.802 11.544C217.562 11.416 219.13 11.352 220.506 11.352ZM220.938 17.736C220.394 17.736 219.898 17.752 219.45 17.784C219.034 17.816 218.634 17.848 218.25 17.88V26.904H220.362C223.178 26.904 225.194 26.552 226.41 25.848C227.626 25.144 228.234 23.944 228.234 22.248C228.234 20.616 227.61 19.464 226.362 18.792C225.146 18.088 223.338 17.736 220.938 17.736Z" fill="#32C766"/>
<line x1="5" y1="6" x2="5" y2="55" stroke="#32C766" stroke-width="10" stroke-linecap="round" stroke-linejoin="round"/>
<line x1="26.3333" y1="9.6875" x2="26.3333" y2="29.1875" stroke="#32C766" stroke-width="10" stroke-linecap="round" stroke-linejoin="round"/>
<line x1="11.2222" y1="19.6" x2="19" y2="19.6" stroke="#32C766" stroke-width="10" stroke-linecap="round" stroke-linejoin="round"/>
<line x1="26.3333" y1="6.32495" x2="43" y2="6.32495" stroke="#32C766" stroke-width="10" stroke-linecap="round" stroke-linejoin="round"/>
<line x1="43" y1="14.4375" x2="43" y2="9.6875" stroke="#32C766" stroke-width="10" stroke-linecap="round" stroke-linejoin="round"/>
</svg>
